<svg width="215" height="65" viewBox="0 0 215 65" fill="none" xmlns="http://www.w3.org/2000/svg">
<path d="M131.407 57.6257C130.485 57.4696 129.55 57.3633 128.642 57.1492C121.909 55.5632 116.812 49.965 115.804 43.0836C114.465 33.9417 120.2 25.5886 129.138 23.6582C136.217 22.1286 143.821 25.7335 147.225 32.2221C148.261 34.1961 148.931 36.2795 149.192 38.4998C149.235 38.8636 149.143 38.9876 148.816 39.0971C141.493 41.5653 134.174 44.0448 126.855 46.5227C126.668 46.5855 126.485 46.6564 126.279 46.732C128.17 48.8219 130.407 49.8282 133.193 49.3564C135.186 49.0183 136.983 48.2793 138.388 46.7562C138.695 46.4245 138.98 46.0558 139.201 45.6613C139.378 45.3442 139.575 45.2669 139.912 45.3055C141.824 45.5261 143.737 45.7306 145.65 45.9399C146.351 46.0155 147.049 46.088 147.75 46.1637C147.917 46.1814 148.085 46.2055 148.358 46.241C147.992 47.0508 147.7 47.8285 147.306 48.5482C144.627 53.4412 140.557 56.3989 135.101 57.3955C134.533 57.4986 133.956 57.5501 133.383 57.6257C132.722 57.6257 132.065 57.6257 131.407 57.6257ZM124.32 38.3871C124.35 38.4305 124.38 38.4724 124.411 38.5159C128.92 36.9605 133.429 35.4052 137.969 33.8386C136.17 32.1239 132.966 31.2512 130.107 32.1915C127.055 33.1962 125.181 35.3215 124.32 38.3871Z" fill="#1E3159"/>
<path d="M192.575 57.6257C191.898 57.513 191.215 57.4309 190.548 57.2812C185.596 56.1686 181.883 53.3059 179.478 48.8637C176.398 43.1754 176.212 37.3164 179.352 31.5893C182.16 26.4693 186.575 23.5213 192.363 22.9417C201.129 22.0642 208.842 27.9522 210.574 36.7077C210.72 37.4468 210.792 38.2003 210.899 38.9473C210.899 39.6429 210.899 40.3384 210.899 41.0324C210.803 41.699 210.748 42.3752 210.606 43.0305C209.013 50.3064 204.745 55.0883 197.595 57.1395C196.73 57.3874 195.817 57.4663 194.927 57.6241C194.14 57.6257 193.358 57.6257 192.575 57.6257ZM193.992 48.8799C194.038 48.8799 194.086 48.8831 194.132 48.8799C194.383 48.8621 194.632 48.8493 194.882 48.8251C197.507 48.5659 199.541 47.3551 200.816 44.9867C201.815 43.1319 202.042 41.1306 201.793 39.0601C201.352 35.3988 199.01 32.1996 194.948 31.7906C191.999 31.4943 189.446 32.3622 187.609 34.8095C186.006 36.946 185.661 39.4046 186.076 42.0049C186.725 46.0703 189.929 48.8557 193.992 48.8799Z" fill="#1E3159"/>
<path d="M68.7364 57.6257C68.7476 57.4374 68.7667 57.249 68.7667 57.0606C68.7683 52.3528 68.7683 47.6449 68.7683 42.9371C68.7667 38.5931 65.6074 35.3086 61.3103 35.1814C58.0122 35.0832 54.8544 37.801 54.355 41.1805C54.2912 41.6152 54.2592 42.0596 54.2576 42.5008C54.2513 47.2714 54.2529 52.0436 54.2529 56.8143C54.2529 57.001 54.2529 57.1878 54.2529 57.41C51.2515 57.41 48.2852 57.41 45.2822 57.41C45.2822 46.0139 45.2822 34.6147 45.2822 23.1768C48.2485 23.1768 51.2259 23.1768 54.2433 23.1768C54.2433 24.6967 54.2433 26.2085 54.2433 27.7043C55.2055 27.3887 56.1166 26.9974 57.0675 26.7914C62.6331 25.579 67.8748 26.1908 72.5101 29.8102C75.079 31.8164 76.8677 34.3716 77.4916 37.6416C77.6592 38.5207 77.7278 39.4304 77.731 40.3272C77.7565 46.0928 77.7501 51.8601 77.7549 57.6257C74.7503 57.6257 71.7426 57.6257 68.7364 57.6257Z" fill="#1E3159"/>
<path d="M20.7237 3.30054C21.1705 3.35528 21.6189 3.40841 22.1231 3.46959C22.4358 6.32746 22.7502 9.19177 23.0613 12.0271C22.0768 12.1511 21.1051 12.2074 20.1637 12.4039C17.1671 13.0269 14.7561 14.5018 13.3519 17.3645C12.9387 18.2081 12.6722 19.0744 12.7201 20.0436C12.7727 21.1095 12.7328 22.1818 12.7328 23.3024C16.0836 23.3024 19.377 23.3024 22.7119 23.3024C22.7247 23.5214 22.7422 23.6888 22.7422 23.8579C22.7438 26.5435 22.7326 29.2274 22.7534 31.913C22.7566 32.3896 22.5954 32.4814 22.1614 32.4782C19.2191 32.4605 16.2767 32.4685 13.3344 32.4685C13.1509 32.4685 12.969 32.4685 12.7615 32.4685C12.7488 32.6327 12.7344 32.739 12.7344 32.8453C12.736 41.1049 12.7376 49.3645 12.7408 57.6258C9.73463 57.6258 6.72687 57.6258 3.7207 57.6258C3.7207 43.9418 3.7207 30.2579 3.7207 16.5739C3.81963 16.1006 3.9058 15.624 4.01909 15.1538C5.47749 9.04686 9.08521 5.0861 15.2747 3.73848C16.2927 3.51629 17.3426 3.44222 18.3782 3.30054C19.1568 3.30054 19.9403 3.30054 20.7237 3.30054Z" fill="#1E3159"/>
<path d="M92.977 57.6259C91.7755 54.4943 90.5788 51.3611 89.3741 48.2312C86.2004 39.986 83.0235 31.7425 79.8482 23.4973C79.8051 23.383 79.778 23.2639 79.7285 23.098C79.9184 23.0884 80.0716 23.0723 80.2232 23.0723C83.1033 23.0642 85.985 23.0642 88.8651 23.0449C89.2002 23.0433 89.3581 23.1463 89.4794 23.4651C92.1042 30.3868 94.7386 37.3036 97.373 44.2205C97.4209 44.3461 97.4767 44.4684 97.5788 44.7116C97.8932 43.8131 98.1692 43.0339 98.4405 42.2514C100.603 36.0333 102.768 29.8168 104.914 23.5923C105.066 23.1512 105.276 23.0401 105.713 23.0433C108.469 23.0626 111.225 23.0529 113.98 23.0529C114.151 23.0529 114.322 23.0529 114.579 23.0529C114.319 23.8129 114.078 24.5197 113.834 25.2233C110.105 35.9512 106.376 46.6775 102.647 57.4053C102.621 57.4794 102.591 57.5518 102.562 57.6259C99.3675 57.6259 96.1731 57.6259 92.977 57.6259Z" fill="#1E3159"/>
<path d="M153.581 57.6257C153.589 52.5878 153.466 47.5451 153.64 42.512C153.863 36.0235 156.517 30.6941 161.79 26.8364C164.426 24.9092 167.434 23.8836 170.636 23.415C171.594 23.275 172.561 23.2025 173.566 23.093C173.566 26.3759 173.566 29.6009 173.566 32.7808C172.645 32.8887 171.726 32.8951 170.86 33.1173C166.66 34.1912 164.166 37.0201 162.976 41.1258C162.585 42.475 162.593 43.8677 162.593 45.2588C162.594 49.2856 162.585 53.314 162.582 57.3407C162.582 57.4357 162.594 57.5291 162.601 57.6241C159.595 57.6257 156.588 57.6257 153.581 57.6257Z" fill="#1E3159"/>
<path d="M28.3328 57.6257C28.3328 47.8928 28.336 38.16 28.3232 28.4271C28.3232 28.0198 28.4477 27.8282 28.8067 27.6478C31.4954 26.3018 34.1728 24.9284 36.8535 23.5647C36.9907 23.4955 37.1311 23.4327 37.3417 23.3345C37.3417 23.5647 37.3417 23.745 37.3417 23.9254C37.3417 34.9543 37.3417 45.9817 37.3417 57.0106C37.3417 57.2151 37.3497 57.4212 37.3529 57.6257C34.3467 57.6257 31.3406 57.6257 28.3328 57.6257Z" fill="#1E3159"/>
</svg>
