<svg width="251" height="66" viewBox="0 0 251 66" fill="none" xmlns="http://www.w3.org/2000/svg">
    <path fillRule="evenodd" clipRule="evenodd"
        d="M11.4344 24.073H22.9198V34.7177H11.4344V65.4625H0.000810348V18.1717C-0.0278316 15.133 0.703201 12.1341 2.12914 9.44093C3.52537 6.79407 5.58564 4.5447 8.11322 2.90761L8.23489 2.82688C12.6514 0.235796 17.8955 -0.615047 22.9198 0.444324C23.2239 3.01548 23.4687 5.06426 23.7344 7.28884C23.8643 8.37613 23.9992 9.50542 24.1485 10.7582C22.3279 10.5487 20.4828 10.7287 18.7389 11.2859C16.9728 11.8489 15.347 12.7735 13.9676 13.9993C12.7682 15.3484 11.9151 16.9625 11.4803 18.7053C11.038 20.4661 11.0223 22.305 11.4344 24.073ZM193.041 65.4625V48.2057C193.042 46.4824 193.416 44.7792 194.138 43.2102C194.847 41.6633 195.893 40.2898 197.202 39.1874C199.964 37.1373 203.254 35.8948 206.697 35.6018V23.7402C201.23 23.5905 195.873 25.2659 191.491 28.4955C191.114 28.783 190.739 29.0862 190.384 29.3894C187.553 31.895 185.307 34.9773 183.801 38.4235C182.267 41.9181 181.496 45.6928 181.54 49.5014V65.4645L193.041 65.4625ZM230.657 65.9902C213.249 66.5514 203.886 42.842 216.495 30.4665C235.045 11.4454 263.495 40.2744 244.993 59.7109L244.837 59.8822C243.002 61.8082 240.793 63.3486 238.34 64.411C235.917 65.4563 233.301 65.994 230.657 65.9902ZM230.9 34.891C217.753 34.2491 217.336 56.011 230.657 55.566C243.533 55.9165 243.704 35.0052 230.9 34.889V34.891ZM103.599 23.8997H92.2552L108.612 65.6338H119.955L134.499 23.8997H123.155L114.091 50.5528L103.599 23.8997ZM41.1233 23.7284L29.7018 29.3776V65.4625H41.1233V23.7284ZM61.6427 44.7914V65.6338H50.273V23.8997H61.6427V29.0901L61.647 29.0882C62.2093 28.8356 73.0879 23.949 81.9506 29.8915C82.3057 30.1318 82.6588 30.3956 82.9919 30.6792C85.0862 32.2264 86.815 34.2043 88.0587 36.476C89.3023 38.7478 90.0311 41.2592 90.1947 43.8364V65.6811H78.9506C78.9128 63.7518 78.9302 60.2822 78.9491 56.5153V56.514C78.969 52.5384 78.9906 48.2318 78.9506 45.0552C78.9506 41.4578 73.938 38.5692 70.0304 38.5692C66.2564 38.5002 61.6427 41.3298 61.6427 44.7914ZM148.996 52.4333C155.848 50.3343 169.669 45.8054 176.487 43.4426C171.873 16.2913 136.336 18.4454 136.182 45.6834C137.387 69.1289 167.27 73.3722 175.4 51.941C174.56 51.7096 171.191 51.282 168.3 50.9151C166.886 50.7356 165.587 50.5707 164.754 50.4504C161.834 56.3182 153.235 57.0172 148.996 52.4333ZM146.666 42.4393L162.963 37.2893C157.279 32.3882 148.103 34.4093 146.666 42.4393Z"
        fill="white" />
</svg>