<svg width="632" height="464" viewBox="0 0 632 464" fill="none" xmlns="http://www.w3.org/2000/svg">
<rect width="632" height="464" fill="#BABABA"/>
<rect width="1728" height="1265" transform="translate(-229 -473)" fill="white"/>
<mask id="path-1-inside-1_500_3088" fill="white">
<path d="M579.182 397.95L24.5373 353.497C17.5775 352.92 11.1287 349.611 6.59981 344.292C2.07093 338.974 -0.169916 332.078 0.366806 325.112L24.4575 24.1827C25.0472 17.2313 28.3614 10.7955 33.6768 6.27995C38.9923 1.76442 45.8774 -0.464127 52.8292 0.0807547L607.474 44.5072C614.417 45.1243 620.841 48.4448 625.362 53.7537C629.883 59.0627 632.139 65.9354 631.644 72.8922L607.554 373.848C606.917 380.78 603.59 387.187 598.285 391.693C592.981 396.199 586.123 398.445 579.182 397.95Z"/>
</mask>
<path d="M579.182 397.95L24.5373 353.497C17.5775 352.92 11.1287 349.611 6.59981 344.292C2.07093 338.974 -0.169916 332.078 0.366806 325.112L24.4575 24.1827C25.0472 17.2313 28.3614 10.7955 33.6768 6.27995C38.9923 1.76442 45.8774 -0.464127 52.8292 0.0807547L607.474 44.5072C614.417 45.1243 620.841 48.4448 625.362 53.7537C629.883 59.0627 632.139 65.9354 631.644 72.8922L607.554 373.848C606.917 380.78 603.59 387.187 598.285 391.693C592.981 396.199 586.123 398.445 579.182 397.95Z" fill="#0CA4F8" stroke="black" stroke-width="2" mask="url(#path-1-inside-1_500_3088)"/>
<mask id="path-2-inside-2_500_3088" fill="white">
<path d="M601.372 359.92L9.257 312.639C8.09682 312.551 7.01924 312.007 6.2612 311.127C5.50316 310.247 5.12674 309.102 5.21472 307.945L25.8783 50.7249C25.9666 49.568 26.5121 48.4935 27.3948 47.7376C28.2775 46.9818 29.4252 46.6065 30.5854 46.6942L622.727 93.975C623.318 94.0212 623.893 94.1852 624.418 94.4575C624.944 94.7298 625.409 95.1048 625.786 95.56C626.163 96.0153 626.445 96.5415 626.614 97.1075C626.783 97.6734 626.836 98.2675 626.77 98.8543L606.106 356.075C605.972 357.203 605.403 358.235 604.52 358.953C603.636 359.671 602.508 360.017 601.372 359.92Z"/>
</mask>
<path d="M601.372 359.92L9.257 312.639C8.09682 312.551 7.01924 312.007 6.2612 311.127C5.50316 310.247 5.12674 309.102 5.21472 307.945L25.8783 50.7249C25.9666 49.568 26.5121 48.4935 27.3948 47.7376C28.2775 46.9818 29.4252 46.6065 30.5854 46.6942L622.727 93.975C623.318 94.0212 623.893 94.1852 624.418 94.4575C624.944 94.7298 625.409 95.1048 625.786 95.56C626.163 96.0153 626.445 96.5415 626.614 97.1075C626.783 97.6734 626.836 98.2675 626.77 98.8543L606.106 356.075C605.972 357.203 605.403 358.235 604.52 358.953C603.636 359.671 602.508 360.017 601.372 359.92Z" fill="white" stroke="black" stroke-width="2" mask="url(#path-2-inside-2_500_3088)"/>
<mask id="path-3-inside-3_500_3088" fill="white">
<path d="M54.3491 39.2915C53.9343 39.3174 53.5181 39.3174 53.1033 39.2915C49.088 39.135 45.2966 37.4741 42.5428 34.6651C39.789 31.8561 38.2922 28.123 38.3738 24.2669C38.4553 20.4108 40.1086 16.739 42.9789 14.0395C45.8491 11.3401 49.7076 9.82813 53.7262 9.82812C57.7448 9.82812 61.6033 11.3401 64.4736 14.0395C67.3438 16.739 68.9971 20.4108 69.0787 24.2669C69.1602 28.123 67.6634 31.8561 64.9096 34.6651C62.1558 37.4741 58.3644 39.135 54.3491 39.2915ZM54.3491 11.7394C50.8494 11.8721 47.5434 13.3167 45.1411 15.7631C42.7389 18.2094 41.432 21.4623 41.5012 24.8232C41.5703 28.1841 43.01 31.3849 45.5109 33.7383C48.0119 36.0917 51.3747 37.41 54.8772 37.41C58.3797 37.41 61.7425 36.0917 64.2435 33.7383C66.7444 31.3849 68.1841 28.1841 68.2532 24.8232C68.3224 21.4623 67.0155 18.2094 64.6133 15.7631C62.211 13.3167 58.9051 11.8721 55.4053 11.7394H54.3491Z"/>
</mask>
<path d="M54.3491 39.2915C53.9343 39.3174 53.5181 39.3174 53.1033 39.2915C49.088 39.135 45.2966 37.4741 42.5428 34.6651C39.789 31.8561 38.2922 28.123 38.3738 24.2669C38.4553 20.4108 40.1086 16.739 42.9789 14.0395C45.8491 11.3401 49.7076 9.82813 53.7262 9.82812C57.7448 9.82812 61.6033 11.3401 64.4736 14.0395C67.3438 16.739 68.9971 20.4108 69.0787 24.2669C69.1602 28.123 67.6634 31.8561 64.9096 34.6651C62.1558 37.4741 58.3644 39.135 54.3491 39.2915ZM54.3491 11.7394C50.8494 11.8721 47.5434 13.3167 45.1411 15.7631C42.7389 18.2094 41.432 21.4623 41.5012 24.8232C41.5703 28.1841 43.01 31.3849 45.5109 33.7383C48.0119 36.0917 51.3747 37.41 54.8772 37.41C58.3797 37.41 61.7425 36.0917 64.2435 33.7383C66.7444 31.3849 68.1841 28.1841 68.2532 24.8232C68.3224 21.4623 67.0155 18.2094 64.6133 15.7631C62.211 13.3167 58.9051 11.8721 55.4053 11.7394H54.3491Z" fill="black" stroke="black" stroke-width="2" mask="url(#path-3-inside-3_500_3088)"/>
<path d="M97.9482 42.9963H96.7238C92.5445 42.8359 88.5948 41.0418 85.7236 37.9994C82.8525 34.957 81.289 30.9093 81.3691 26.7261C81.4493 22.5429 83.1668 18.5581 86.1524 15.6281C89.1381 12.698 93.1536 11.0566 97.336 11.0566C101.518 11.0566 105.534 12.698 108.52 15.6281C111.505 18.5581 113.223 22.5429 113.303 26.7261C113.383 30.9093 111.82 34.957 108.948 37.9994C106.077 41.0418 102.128 42.8359 97.9482 42.9963ZM97.9482 14.7726C95.8509 14.7709 93.7842 15.2763 91.9242 16.2457C90.0642 17.2151 88.4658 18.6198 87.2654 20.3402C86.0649 22.0606 85.2978 24.0458 85.0294 26.1266C84.761 28.2075 84.9993 30.3224 85.7239 32.2913C86.4485 34.2602 87.6381 36.0247 89.1912 37.4347C90.7444 38.8447 92.6151 39.8583 94.6442 40.3892C96.6733 40.9201 98.8005 40.9527 100.845 40.4841C102.889 40.0154 104.79 39.0595 106.386 37.6977C107.69 36.5938 108.762 35.2414 109.538 33.7192C110.315 32.197 110.782 30.5354 110.91 28.8312C111.183 25.3929 110.08 21.987 107.844 19.3612C105.609 16.7354 102.423 15.1042 98.9862 14.8258L97.9482 14.7726Z" fill="black"/>
<mask id="path-5-inside-4_500_3088" fill="white">
<path d="M140.933 46.681H139.731C135.876 46.5236 132.237 44.861 129.594 42.05C126.951 39.2389 125.515 35.5034 125.593 31.645C125.672 27.7866 127.259 24.1128 130.015 21.4119C132.77 18.711 136.474 17.1982 140.332 17.1982C144.189 17.1982 147.893 18.711 150.649 21.4119C153.404 24.1128 154.991 27.7866 155.07 31.645C155.149 35.5034 153.712 39.2389 151.069 42.05C148.426 44.861 144.787 46.5236 140.933 46.681ZM140.933 18.964C137.638 19.0975 134.528 20.5177 132.268 22.9197C130.009 25.3218 128.78 28.5143 128.847 31.8121C128.914 35.1099 130.27 38.2501 132.625 40.5587C134.98 42.8674 138.145 44.1605 141.443 44.1605C144.74 44.1605 147.905 42.8674 150.26 40.5587C152.615 38.2501 153.971 35.1099 154.038 31.8121C154.105 28.5143 152.877 25.3218 150.617 22.9197C148.357 20.5177 145.247 19.0975 141.952 18.964H140.933Z"/>
</mask>
<path d="M140.933 46.681H139.731C135.876 46.5236 132.237 44.861 129.594 42.05C126.951 39.2389 125.515 35.5034 125.593 31.645C125.672 27.7866 127.259 24.1128 130.015 21.4119C132.77 18.711 136.474 17.1982 140.332 17.1982C144.189 17.1982 147.893 18.711 150.649 21.4119C153.404 24.1128 154.991 27.7866 155.07 31.645C155.149 35.5034 153.712 39.2389 151.069 42.05C148.426 44.861 144.787 46.5236 140.933 46.681ZM140.933 18.964C137.638 19.0975 134.528 20.5177 132.268 22.9197C130.009 25.3218 128.78 28.5143 128.847 31.8121C128.914 35.1099 130.27 38.2501 132.625 40.5587C134.98 42.8674 138.145 44.1605 141.443 44.1605C144.74 44.1605 147.905 42.8674 150.26 40.5587C152.615 38.2501 153.971 35.1099 154.038 31.8121C154.105 28.5143 152.877 25.3218 150.617 22.9197C148.357 20.5177 145.247 19.0975 141.952 18.964H140.933Z" fill="black" stroke="black" stroke-width="2" mask="url(#path-5-inside-4_500_3088)"/>
<mask id="path-6-inside-5_500_3088" fill="white">
<path d="M553.98 68.165H97.1548V464H553.98V68.165Z"/>
</mask>
<path d="M553.98 68.165H97.1548V464H553.98V68.165Z" fill="white" stroke="black" stroke-width="2" mask="url(#path-6-inside-5_500_3088)"/>
<mask id="path-7-inside-6_500_3088" fill="white">
<path d="M553.98 68.165H97.1548V83.7114H553.98V68.165Z"/>
</mask>
<path d="M553.98 68.165H97.1548V83.7114H553.98V68.165Z" fill="#40BCFF" stroke="black" stroke-width="2" mask="url(#path-7-inside-6_500_3088)"/>
<path d="M299.983 272.063H132.736C131.062 272.061 129.405 272.389 127.858 273.028C126.311 273.667 124.905 274.606 123.721 275.789C122.538 276.973 121.599 278.378 120.96 279.925C120.321 281.472 119.993 283.13 119.996 284.804V353.301L135.073 337.325H299.983C303.364 337.325 306.607 335.983 308.999 333.594C311.392 331.205 312.739 327.965 312.744 324.584V284.804C312.744 283.129 312.414 281.471 311.772 279.924C311.131 278.377 310.19 276.971 309.005 275.788C307.82 274.605 306.413 273.667 304.865 273.028C303.317 272.389 301.658 272.061 299.983 272.063Z" fill="#40BCFF"/>
<path d="M169.724 311.731C176.954 304.897 177.275 293.496 170.441 286.266C163.607 279.037 152.206 278.715 144.976 285.549C137.746 292.383 137.425 303.784 144.259 311.014C151.093 318.244 162.494 318.565 169.724 311.731Z" fill="white"/>
<path d="M182.621 287.281H219.765" stroke="white" stroke-width="2" stroke-linecap="round" stroke-linejoin="round"/>
<path d="M182.621 300.222H296.309" stroke="white" stroke-linecap="round" stroke-linejoin="round"/>
<path d="M182.621 310.926H296.309" stroke="white" stroke-linecap="round" stroke-linejoin="round"/>
<path d="M182.621 322.748H296.309" stroke="white" stroke-linecap="round" stroke-linejoin="round"/>
<path d="M519.634 181.787H352.447C349.068 181.787 345.828 183.13 343.438 185.519C341.049 187.908 339.707 191.149 339.707 194.528V234.308C339.707 237.687 341.049 240.928 343.438 243.317C345.828 245.706 349.068 247.049 352.447 247.049H517.378L532.455 263.024V194.528C532.455 192.848 532.123 191.185 531.477 189.634C530.832 188.083 529.886 186.675 528.695 185.491C527.503 184.307 526.089 183.37 524.534 182.734C522.979 182.099 521.314 181.777 519.634 181.787Z" fill="#A3A3A3"/>
<path d="M373.855 227.757C383.759 227.757 391.788 219.728 391.788 209.824C391.788 199.92 383.759 191.892 373.855 191.892C363.951 191.892 355.922 199.92 355.922 209.824C355.922 219.728 363.951 227.757 373.855 227.757Z" fill="white"/>
<path d="M402.332 197.004H439.476" stroke="white" stroke-width="2" stroke-linecap="round" stroke-linejoin="round"/>
<path d="M402.332 209.945H516.02" stroke="white" stroke-linecap="round" stroke-linejoin="round"/>
<path d="M402.332 220.648H516.02" stroke="white" stroke-linecap="round" stroke-linejoin="round"/>
<path d="M402.332 232.471H516.02" stroke="white" stroke-linecap="round" stroke-linejoin="round"/>
<path d="M519.635 362.342H352.448C349.069 362.342 345.828 363.684 343.439 366.074C341.049 368.463 339.707 371.704 339.707 375.083V414.863C339.707 418.242 341.049 421.482 343.439 423.872C345.828 426.261 349.069 427.603 352.448 427.603H517.378L532.455 443.579V375.083C532.455 373.403 532.123 371.74 531.478 370.189C530.833 368.638 529.887 367.229 528.695 366.045C527.504 364.861 526.09 363.924 524.535 363.289C522.98 362.653 521.314 362.332 519.635 362.342Z" fill="#A3A3A3"/>
<path d="M373.855 408.312C383.759 408.312 391.788 400.283 391.788 390.379C391.788 380.475 383.759 372.446 373.855 372.446C363.951 372.446 355.922 380.475 355.922 390.379C355.922 400.283 363.951 408.312 373.855 408.312Z" fill="white"/>
<path d="M402.333 377.559H439.476" stroke="white" stroke-width="2" stroke-linecap="round" stroke-linejoin="round"/>
<path d="M402.333 390.5H516.02" stroke="white" stroke-linecap="round" stroke-linejoin="round"/>
<path d="M402.333 401.203H516.02" stroke="white" stroke-linecap="round" stroke-linejoin="round"/>
<path d="M402.333 413.025H516.02" stroke="white" stroke-linecap="round" stroke-linejoin="round"/>
<path d="M300.003 91.5107H132.756C129.372 91.5107 126.126 92.8552 123.733 95.2482C121.34 97.6413 119.996 100.887 119.996 104.271V172.768L135.073 156.792H300.003C303.382 156.792 306.623 155.45 309.012 153.06C311.401 150.671 312.744 147.43 312.744 144.051V104.271C312.746 102.597 312.419 100.938 311.78 99.3896C311.141 97.8415 310.203 96.4347 309.019 95.2495C307.836 94.0643 306.43 93.124 304.883 92.4825C303.336 91.8409 301.678 91.5107 300.003 91.5107Z" fill="#40BCFF"/>
<path d="M156.308 142.171C166.075 140.53 172.662 131.281 171.021 121.514C169.38 111.747 160.131 105.16 150.364 106.801C140.597 108.443 134.01 117.691 135.651 127.458C137.293 137.225 146.541 143.812 156.308 142.171Z" fill="white"/>
<path d="M180.424 105.55H217.568" stroke="#263238" stroke-width="2" stroke-linecap="round" stroke-linejoin="round"/>
<path d="M180.424 118.49H294.112" stroke="#263238" stroke-linecap="round" stroke-linejoin="round"/>
<path d="M180.424 129.174H294.112" stroke="#263238" stroke-linecap="round" stroke-linejoin="round"/>
<path d="M180.424 140.996H294.112" stroke="#263238" stroke-linecap="round" stroke-linejoin="round"/>
</svg>
